# xmcd
#
# Track frame offsets: 
#        150
#        24870
#        47156
#        66303
#        85881
#        107393
#        125219
#        141720
#        164198
#        187350
#        205277
#
# Disc length: 3110 seconds
#
# Revision: 0
# Processed by: cddbd v1.5.2PL0 Copyright (c) Steve Scherf et al.
# Submitted via: ExactAudioCopy v0.95b4
#
DISCID=af0c240b
DTITLE=Moein - Tolou
DYEAR=2007
DGENRE=Blues
TTITLE0=Molaghat
TTITLE1=Khosbinee
TTITLE2=Jodaee
TTITLE3=Ey esgh
TTITLE4=Vagti to baa man nisti
TTITLE5=Be To Goftam. Nagoftam
TTITLE6=To maage ghalbeh mani
TTITLE7=Tolou
TTITLE8=Bot Parast
TTITLE9=Sharab
TTITLE10=Ey Darigh
EXTD=
EXTT0=
EXTT1=
EXTT2=
EXTT3=
EXTT4=
EXTT5=
EXTT6=
EXTT7=
EXTT8=
EXTT9=
EXTT10=
PLAYORDER=
